<mxfile host="65bd71144e">
    <diagram id="CS7i_cNVyCHFpTabqUYe" name="Arrow">
        <mxGraphModel dx="405" dy="260" grid="1" gridSize="10" guides="1" tooltips="1" connect="1" arrows="1" fold="1" page="1" pageScale="1" pageWidth="1169" pageHeight="827" math="0" shadow="0">
            <root>
                <mxCell id="0"/>
                <mxCell id="1" parent="0"/>
                <mxCell id="2" value="" style="endArrow=oval;html=1;edgeStyle=elbowEdgeStyle;rounded=0;endFill=1;" edge="1" parent="1">
                    <mxGeometry width="50" height="50" relative="1" as="geometry">
                        <mxPoint x="630" y="400" as="sourcePoint"/>
                        <mxPoint x="780" y="440" as="targetPoint"/>
                    </mxGeometry>
                </mxCell>
            </root>
        </mxGraphModel>
    </diagram>
</mxfile>